<?xml version="1.0" encoding="utf-8"?>
<svg viewBox="0 0 1711 1093" xmlns="http://www.w3.org/2000/svg">
  <path fill="#F0EDEE" opacity="1.000000" stroke="none" d="&#10;M163.000000,129.999893 &#10;&#9;C163.000000,137.495193 163.000000,144.490570 163.000000,151.939987 &#10;&#9;C165.453384,145.616714 167.300110,139.523163 170.109573,133.911591 &#10;&#9;C174.987457,124.168587 181.548569,115.556870 191.347092,110.295128 &#10;&#9;C199.003113,106.183868 207.178925,103.237900 216.086243,102.945244 &#10;&#9;C220.325180,102.805977 224.548050,102.146194 228.786575,102.031227 &#10;&#9;C246.658142,101.546524 262.881439,106.707298 276.355072,118.347404 &#10;&#9;C281.691742,122.957863 285.082825,129.837875 289.273254,135.745895 &#10;&#9;C290.377686,137.303024 291.160126,139.088577 292.184692,140.939575 &#10;&#9;C296.735901,134.471237 300.477081,127.591370 305.685883,122.104813 &#10;&#9;C314.246185,113.088020 324.513153,105.955421 337.163971,104.150131 &#10;&#9;C347.050720,102.739273 357.169159,101.754829 367.112488,102.198555 &#10;&#9;C385.267487,103.008728 402.505127,108.035408 415.404083,121.489372 &#10;&#9;C421.260651,127.597939 425.491394,135.816620 428.702667,143.786087 &#10;&#9;C434.078735,157.127899 437.669891,171.106445 438.027405,185.701996 &#10;&#9;C438.213287,193.291336 438.951416,200.873917 438.956787,208.459885 &#10;&#9;C439.022980,302.286011 439.000000,396.112213 439.000000,489.938385 &#10;&#9;C439.000000,491.754211 439.000000,493.570038 439.000000,495.692322 &#10;&#9;C407.740753,495.692322 376.671661,495.692322 345.000000,495.692322 &#10;&#9;C345.000000,494.040985 345.000000,492.278778 345.000000,490.516541 &#10;&#9;C345.000000,393.857239 345.014832,297.197937 344.969269,200.538666 &#10;&#9;C344.965942,193.515076 343.119110,186.941620 340.176819,180.457336 &#10;&#9;C334.486420,167.916733 320.438171,169.197037 312.792786,175.710541 &#10;&#9;C305.787445,181.678787 303.007385,190.018295 302.207733,198.498795 &#10;&#9;C300.799988,213.428833 300.124695,228.477798 300.090149,243.479156 &#10;&#9;C299.901001,325.639130 300.000000,407.799744 300.000000,489.960144 &#10;&#9;C300.000000,491.775177 300.000000,493.590210 300.000000,495.700012 &#10;&#9;C269.391876,495.700012 238.989471,495.700012 208.000000,495.700012 &#10;&#9;C208.000000,494.023285 208.000000,492.258972 208.000000,490.494629 &#10;&#9;C208.000000,395.501892 208.088165,300.508881 207.833633,205.516830 &#10;&#9;C207.813141,197.868622 205.976303,190.084732 204.012589,182.619278 &#10;&#9;C201.760971,174.059311 193.807999,170.141449 185.330688,172.247589 &#10;&#9;C175.932083,174.582642 170.620239,180.696075 167.580444,189.706451 &#10;&#9;C164.193146,199.746872 162.932678,209.917969 162.944138,220.460648 &#10;&#9;C163.041733,310.287048 163.000000,400.113556 163.000000,489.940033 &#10;&#9;C163.000000,491.755707 163.000000,493.571381 163.000000,495.692932 &#10;&#9;C132.739609,495.692932 102.670418,495.692932 72.300140,495.692932 &#10;&#9;C72.300140,366.062775 72.300140,236.332764 72.300140,106.301270 &#10;&#9;C102.272148,106.301270 132.341278,106.301270 163.000000,106.301270 &#10;&#9;C163.000000,113.970055 163.000000,121.735001 163.000000,129.999893 &#10;z" transform="matrix(1, 0, 0, 1, 1.4210854715202004e-14, 0)"/>
  <path fill="#F0EDEE" opacity="1.000000" stroke="none" d="&#10;M931.999329,701.246155 &#10;&#9;C929.617371,693.951538 926.596069,688.376953 917.832336,687.770386 &#10;&#9;C910.252625,687.245850 901.882263,690.263367 898.020691,696.928711 &#10;&#9;C892.729675,706.061584 890.185852,716.176331 890.125427,726.494080 &#10;&#9;C889.578186,820.077576 889.333313,913.662781 889.000488,1007.247498 &#10;&#9;C888.996460,1008.378418 889.000000,1009.509399 889.000000,1010.801758 &#10;&#9;C858.970947,1010.801758 829.352051,1010.801758 799.366455,1010.801758 &#10;&#9;C799.366455,881.191101 799.366455,751.456238 799.366455,621.360596 &#10;&#9;C828.819763,621.360596 858.557495,621.360596 888.699341,621.360596 &#10;&#9;C888.699341,636.505554 888.699341,651.919189 888.699341,667.332764 &#10;&#9;C888.964233,667.383545 889.229126,667.434326 889.494019,667.485168 &#10;&#9;C891.333679,662.399109 892.859497,657.172180 895.069031,652.252197 &#10;&#9;C903.256958,634.019409 916.687195,622.119873 936.895264,619.059387 &#10;&#9;C943.834900,618.008362 950.919861,616.839111 957.872437,617.158813 &#10;&#9;C976.896606,618.033508 994.420715,623.421814 1007.515808,638.213989 &#10;&#9;C1012.173157,643.474915 1015.574646,649.847473 1019.330322,655.389404 &#10;&#9;C1023.679871,649.341064 1027.619385,642.561890 1032.808594,636.935425 &#10;&#9;C1041.792603,627.194519 1052.855957,620.548340 1066.364868,619.040588 &#10;&#9;C1074.340210,618.150513 1082.379883,616.938354 1090.357056,617.148254 &#10;&#9;C1108.184326,617.617554 1125.348389,621.797119 1138.863281,633.886169 &#10;&#9;C1145.266479,639.613831 1149.640991,647.953064 1153.866455,655.692383 &#10;&#9;C1160.511597,667.863770 1162.250732,681.657776 1164.870239,695.063843 &#10;&#9;C1165.840210,700.027649 1165.949829,705.216492 1165.955322,710.303284 &#10;&#9;C1166.023682,772.968262 1166.115356,835.633667 1165.956055,898.298279 &#10;&#9;C1165.862793,935.052124 1165.332886,971.804871 1164.994141,1008.558044 &#10;&#9;C1164.988281,1009.199280 1164.917969,1009.839783 1164.861694,1010.734802 &#10;&#9;C1133.987061,1010.734802 1103.250610,1010.734802 1072.000000,1010.734802 &#10;&#9;C1072.000000,1008.940063 1072.000000,1007.165833 1072.000000,1005.391541 &#10;&#9;C1072.000000,910.060669 1072.053223,814.729675 1071.905884,719.398987 &#10;&#9;C1071.893188,711.180054 1070.644897,703.010437 1066.842285,695.378723 &#10;&#9;C1061.914551,685.489380 1048.159912,684.031128 1040.632080,690.013062 &#10;&#9;C1033.549561,695.641235 1030.726929,703.695496 1028.949463,712.321655 &#10;&#9;C1025.738037,727.906738 1027.089478,743.651550 1027.063477,759.325012 &#10;&#9;C1026.927368,841.156006 1027.000000,922.987366 1027.000000,1004.818604 &#10;&#9;C1027.000000,1006.646118 1027.000000,1008.473633 1027.000000,1010.650085 &#10;&#9;C996.158569,1010.650085 965.421082,1010.650085 934.000000,1010.650085 &#10;&#9;C934.000000,1008.967896 934.000000,1007.049438 934.000000,1005.131042 &#10;&#9;C934.000000,910.133484 934.037109,815.135803 933.914185,720.138428 &#10;&#9;C933.906189,713.980835 932.666809,707.824829 931.999329,701.246155 &#10;z" transform="matrix(1, 0, 0, 1, 1.4210854715202004e-14, 0)"/>
  <path fill="#F0EDEE" opacity="1.000000" stroke="none" d="&#10;M476.997162,1012.833801 &#10;&#9;C449.862305,1012.833801 422.727478,1012.833801 395.296387,1012.833801 &#10;&#9;C395.296387,993.387451 395.296387,973.986572 395.296387,954.229614 &#10;&#9;C396.636047,954.156555 398.071564,954.011963 399.507294,954.010254 &#10;&#9;C413.503815,953.993164 427.500458,953.963623 441.496735,954.021301 &#10;&#9;C445.940247,954.039612 448.313873,952.219482 449.060913,947.625732 &#10;&#9;C452.602997,925.844238 456.342010,904.094727 460.018372,882.335144 &#10;&#9;C464.012604,858.694214 468.038727,835.058655 472.007050,811.413391 &#10;&#9;C475.708527,789.357910 479.327881,767.288574 483.029053,745.233032 &#10;&#9;C486.326538,725.583008 489.708008,705.947083 493.012817,686.298279 &#10;&#9;C496.372467,666.323120 499.602539,646.325928 503.037781,626.363892 &#10;&#9;C506.936676,603.707397 511.046661,581.087341 514.976501,558.436096 &#10;&#9;C517.718262,542.632690 520.568359,526.840576 522.854370,510.969055 &#10;&#9;C523.884155,503.819733 525.189636,496.140198 523.637878,489.323151 &#10;&#9;C521.339355,479.225403 520.678406,468.945251 518.541565,458.864594 &#10;&#9;C516.525513,449.353790 515.491272,439.635803 513.995667,430.013519 &#10;&#9;C512.251587,418.792328 510.509186,407.570709 508.702911,396.359436 &#10;&#9;C507.182220,386.920776 505.573029,377.496368 503.999542,368.066254 &#10;&#9;C502.079529,356.559204 500.081146,345.064636 498.256836,333.542450 &#10;&#9;C496.733032,323.918182 495.458588,314.254730 493.987335,304.621765 &#10;&#9;C492.297363,293.556793 490.523499,282.504578 488.765533,271.450073 &#10;&#9;C486.855743,259.440704 484.965027,247.428101 482.987762,235.429810 &#10;&#9;C480.801147,222.160950 478.485962,208.913254 476.302765,195.643845 &#10;&#9;C474.801483,186.519150 473.462097,177.367966 471.992584,168.237900 &#10;&#9;C469.751587,154.314682 467.415161,140.406708 465.210602,126.477806 &#10;&#9;C464.150330,119.778664 463.298828,113.046478 462.331055,106.175117 &#10;&#9;C491.680267,106.175117 521.114319,106.175117 550.731323,106.175117 &#10;&#9;C551.495850,115.784805 552.124634,125.249802 553.030457,134.688202 &#10;&#9;C554.231934,147.208099 555.710815,159.701172 556.952515,172.217468 &#10;&#9;C557.745361,180.209030 558.265930,188.227264 559.013000,196.223770 &#10;&#9;C560.290955,209.902863 561.659363,223.573486 562.970886,237.249496 &#10;&#9;C563.346375,241.164963 563.690247,245.084137 563.990967,249.006027 &#10;&#9;C564.679626,257.985474 565.195862,266.980408 566.032898,275.945648 &#10;&#9;C567.233093,288.799744 568.676697,301.630951 569.973816,314.476227 &#10;&#9;C570.385559,318.554047 570.643005,322.647217 571.003113,326.730499 &#10;&#9;C572.326904,341.739532 573.726501,356.742218 574.966431,371.758118 &#10;&#9;C575.481384,377.994629 575.651733,384.259247 576.018005,390.508759 &#10;&#9;C576.068359,391.367401 576.346924,392.212646 577.418396,392.985992 &#10;&#9;C577.944214,389.414490 578.623230,385.857697 578.967468,382.268799 &#10;&#9;C580.046326,371.023071 580.840271,359.748291 582.041016,348.516418 &#10;&#9;C583.531494,334.575195 585.412292,320.675903 586.940613,306.738342 &#10;&#9;C587.815613,298.758545 588.164917,290.721069 589.039734,282.741211 &#10;&#9;C590.193359,272.217682 591.706909,261.734070 592.919006,251.216385 &#10;&#9;C593.743042,244.065567 594.226379,236.875854 595.020447,229.721130 &#10;&#9;C596.261292,218.540741 597.694580,207.381699 598.934021,196.201157 &#10;&#9;C599.727234,189.045822 600.227234,181.858002 601.020996,174.702759 &#10;&#9;C602.261353,163.522476 603.683289,152.362411 604.942566,141.184143 &#10;&#9;C605.711426,134.359375 606.337585,127.518234 606.993713,120.681175 &#10;&#9;C607.446533,115.962181 607.841125,111.237595 608.306458,106.013229 &#10;&#9;C628.527771,106.013229 648.799500,106.013229 669.534790,106.511612 &#10;&#9;C667.855225,119.957191 665.703430,132.902939 663.571472,145.851959 &#10;&#9;C661.038757,161.234848 658.527039,176.621201 655.998962,192.004837 &#10;&#9;C653.550354,206.904861 651.097534,221.804169 648.637512,236.702286 &#10;&#9;C646.097900,252.082687 643.513184,267.455719 641.011230,282.842224 &#10;&#9;C638.534729,298.073029 636.190613,313.325439 633.689392,328.552155 &#10;&#9;C631.189575,343.770630 628.522217,358.961548 626.011841,374.178345 &#10;&#9;C623.847412,387.298035 621.852173,400.445648 619.688171,413.565430 &#10;&#9;C617.178345,428.782257 614.522156,443.974884 612.011353,459.191559 &#10;&#9;C609.846619,472.311066 607.864990,485.460968 605.678101,498.576691 &#10;&#9;C603.195740,513.464478 600.496155,528.316223 598.038208,543.207947 &#10;&#9;C595.819214,556.652161 593.857178,570.138611 591.675171,583.589111 &#10;&#9;C589.179199,598.975464 586.538757,614.338318 584.010498,629.719543 &#10;&#9;C581.560974,644.621765 579.201233,659.538757 576.752747,674.441162 &#10;&#9;C574.198975,689.983643 571.580933,705.515564 569.001038,721.053772 &#10;&#9;C566.770386,734.488953 564.546936,747.925354 562.333252,761.363342 &#10;&#9;C560.545776,772.214661 558.778992,783.069397 557.000427,793.922180 &#10;&#9;C554.797668,807.363220 552.598083,820.804871 550.385986,834.244385 &#10;&#9;C548.600037,845.094666 546.762268,855.936584 545.010498,866.792358 &#10;&#9;C542.552307,882.026733 540.212341,897.280396 537.710999,912.507568 &#10;&#9;C535.211243,927.725464 532.799683,942.963684 529.913513,958.109985 &#10;&#9;C528.212585,967.036316 528.530334,976.458313 523.955750,984.739502 &#10;&#9;C521.445618,989.283508 519.327820,994.104431 513.824097,996.135925 &#10;&#9;C511.557251,996.972534 509.727539,998.939453 507.494598,999.932739 &#10;&#9;C501.107391,1002.773926 494.612030,1005.371460 488.166016,1008.081177 &#10;&#9;C484.436249,1009.649109 480.719696,1011.248535 476.997162,1012.833801 &#10;z" transform="matrix(1, 0, 0, 1, 1.4210854715202004e-14, 0)"/>
  <path fill="#F0EDEE" opacity="1.000000" stroke="none" d="&#10;M1203.000000,870.000000 &#10;&#9;C1203.000000,763.527344 1203.000000,657.554749 1203.000000,551.291138 &#10;&#9;C1234.959961,551.291138 1266.696167,551.291138 1298.828735,551.291138 &#10;&#9;C1298.828735,580.630737 1298.828735,610.025269 1298.828735,639.346863 &#10;&#9;C1305.427124,634.576416 1311.362793,629.147339 1318.252686,625.541931 &#10;&#9;C1332.361816,618.158875 1347.468994,615.710510 1363.542603,617.782349 &#10;&#9;C1372.943481,618.994080 1382.051514,620.731812 1390.719971,624.367371 &#10;&#9;C1404.760010,630.255920 1414.905884,640.403320 1422.007690,653.806458 &#10;&#9;C1429.159790,667.304626 1432.759521,681.798401 1433.920654,696.868347 &#10;&#9;C1434.971802,710.510132 1435.857422,724.203125 1435.908936,737.876953 &#10;&#9;C1436.124878,795.206665 1436.288940,852.539856 1435.859375,909.867249 &#10;&#9;C1435.684692,933.182373 1432.109863,956.053955 1421.006714,977.140930 &#10;&#9;C1409.695190,998.623413 1392.196533,1011.016541 1368.028931,1014.036926 &#10;&#9;C1358.384155,1015.242249 1348.969604,1015.582703 1339.299316,1013.222290 &#10;&#9;C1327.760620,1010.405884 1319.335083,1003.349915 1312.524170,994.614136 &#10;&#9;C1306.989868,987.515686 1303.282959,978.992493 1299.208008,971.873962 &#10;&#9;C1299.208008,983.863342 1299.208008,997.133057 1299.208008,1010.699341 &#10;&#9;C1267.059326,1010.699341 1235.322998,1010.699341 1203.000000,1010.699341 &#10;&#9;C1203.000000,964.020142 1203.000000,917.260071 1203.000000,870.000000 &#10;M1342.000000,839.500000 &#10;&#9;C1342.000000,803.181824 1342.121216,766.862854 1341.908691,730.545959 &#10;&#9;C1341.859985,722.220825 1341.463623,713.740479 1339.821045,705.615906 &#10;&#9;C1336.732178,690.338196 1330.780518,686.908203 1314.552612,689.826660 &#10;&#9;C1309.360474,690.760437 1306.337524,693.617737 1303.941895,698.008240 &#10;&#9;C1300.337280,704.614380 1299.054077,711.729431 1299.044678,719.049133 &#10;&#9;C1298.966064,780.523438 1298.885620,841.998413 1299.133789,903.471802 &#10;&#9;C1299.167725,911.875854 1300.068115,920.525940 1302.245239,928.610229 &#10;&#9;C1305.128418,939.316345 1310.774048,944.154358 1326.356934,943.018066 &#10;&#9;C1333.089600,942.527100 1338.903931,936.100891 1339.932983,926.943848 &#10;&#9;C1340.920898,918.154480 1341.781738,909.307068 1341.909180,900.473755 &#10;&#9;C1342.197754,880.486206 1342.000000,860.491699 1342.000000,839.500000 &#10;z" transform="matrix(1, 0, 0, 1, 1.4210854715202004e-14, 0)"/>
  <path fill="#F0EDEE" opacity="1.000000" stroke="none" d="&#10;M141.998505,959.990723 &#10;&#9;C134.758728,946.938232 131.152374,932.997864 129.201996,918.822571 &#10;&#9;C127.281799,904.866638 126.264481,890.691833 126.137825,876.601562 &#10;&#9;C125.755928,834.113892 125.394760,791.608643 126.236656,749.134277 &#10;&#9;C126.709465,725.280396 129.127213,701.530396 136.673553,678.431396 &#10;&#9;C146.677261,647.810547 166.604980,627.890625 197.327072,619.211670 &#10;&#9;C207.694351,616.282959 218.688614,615.455627 229.449265,614.082886 &#10;&#9;C235.643555,613.292725 241.969009,612.802551 248.191727,613.097839 &#10;&#9;C268.184784,614.046631 288.108704,616.393372 305.920776,626.204834 &#10;&#9;C316.051697,631.785278 326.119537,638.320068 334.310791,646.364868 &#10;&#9;C344.086548,655.965698 350.333954,668.432495 354.018402,681.906738 &#10;&#9;C357.285950,693.856445 357.911957,706.079956 357.976837,718.354004 &#10;&#9;C358.068420,735.674805 358.000000,752.996460 358.000000,770.658752 &#10;&#9;C326.811707,770.658752 295.745056,770.658752 264.000000,770.658752 &#10;&#9;C264.000000,768.635864 264.000000,766.380432 264.000000,764.125000 &#10;&#9;C264.000000,751.960876 264.253174,739.789856 263.918091,727.634949 &#10;&#9;C263.660583,718.293274 262.935028,708.942139 261.914917,699.650330 &#10;&#9;C260.943207,690.799500 253.859375,685.350952 244.927536,684.908203 &#10;&#9;C235.458191,684.438660 227.191345,686.792908 223.347534,695.792664 &#10;&#9;C220.688004,702.019592 219.212204,709.239441 219.179688,716.025085 &#10;&#9;C218.876328,779.343628 218.835815,842.665222 219.191559,905.983215 &#10;&#9;C219.240311,914.662598 220.163315,923.577637 226.369781,931.163818 &#10;&#9;C231.383530,937.292053 237.293808,939.739563 244.618149,938.890076 &#10;&#9;C252.461090,937.980530 258.392792,933.517456 260.806519,926.026245 &#10;&#9;C262.664825,920.258789 263.765594,914.010254 263.861450,907.954346 &#10;&#9;C264.211700,885.824280 264.000000,863.685242 264.000000,841.275269 &#10;&#9;C295.321747,841.275269 326.387604,841.275269 357.791504,841.275269 &#10;&#9;C357.859924,842.681702 357.990173,844.121765 357.990997,845.562012 &#10;&#9;C358.003754,868.557190 358.711060,891.579773 357.826263,914.540833 &#10;&#9;C356.625916,945.691772 344.524200,971.659302 318.449371,990.230408 &#10;&#9;C304.236115,1000.353455 288.491821,1005.997925 271.425507,1009.188538 &#10;&#9;C257.402985,1011.809998 243.344803,1011.542725 229.418259,1010.754456 &#10;&#9;C206.236359,1009.442322 184.233246,1003.344421 165.281006,989.009888 &#10;&#9;C155.204163,981.388245 147.716690,971.598145 141.998505,959.990723 &#10;z" transform="matrix(1, 0, 0, 1, 1.4210854715202004e-14, 0)"/>
  <path fill="#F0EDEE" opacity="1.000000" stroke="none" d="&#10;M1599.000000,621.000000 &#10;&#9;C1616.805908,621.000000 1634.111694,621.000000 1651.754639,621.000000 &#10;&#9;C1651.843750,622.636902 1651.987427,624.072388 1651.989746,625.508118 &#10;&#9;C1652.007935,637.337585 1651.533691,649.190002 1652.114746,660.990845 &#10;&#9;C1652.890747,676.748596 1650.158813,691.494324 1644.550781,706.354187 &#10;&#9;C1631.698486,740.409851 1620.126709,774.947876 1607.947754,809.259033 &#10;&#9;C1598.021606,837.223938 1588.009033,865.158325 1577.956543,893.078125 &#10;&#9;C1572.141602,909.228516 1566.171509,925.323242 1560.103638,941.901001 &#10;&#9;C1591.146118,941.901001 1621.810913,941.901001 1652.736572,941.901001 &#10;&#9;C1652.736572,965.011414 1652.736572,987.743347 1652.736572,1010.738159 &#10;&#9;C1588.327637,1010.738159 1523.938721,1010.738159 1459.212524,1010.738159 &#10;&#9;C1459.142456,1009.323120 1459.011353,1007.883606 1459.009399,1006.443970 &#10;&#9;C1458.992798,994.447876 1459.599365,982.413208 1458.830200,970.466614 &#10;&#9;C1458.070801,958.670959 1461.137573,947.987488 1465.263428,937.276794 &#10;&#9;C1473.103760,916.924011 1480.748657,896.495850 1488.434692,876.083923 &#10;&#9;C1497.476929,852.070374 1506.471436,828.038818 1515.495972,804.018555 &#10;&#9;C1526.551514,774.592407 1537.633179,745.176025 1548.666260,715.741516 &#10;&#9;C1551.358154,708.559753 1553.905151,701.323608 1556.588257,693.921143 &#10;&#9;C1525.821655,693.921143 1495.191162,693.921143 1464.280762,693.921143 &#10;&#9;C1464.280762,669.690735 1464.280762,645.625610 1464.280762,621.000000 &#10;&#9;C1508.997559,621.000000 1553.748779,621.000000 1599.000000,621.000000 &#10;z" transform="matrix(1, 0, 0, 1, 1.4210854715202004e-14, 0)"/>
  <path fill="#F0EDEE" opacity="1.000000" stroke="none" d="&#10;M760.833862,631.002930 &#10;&#9;C760.889282,632.497253 760.993164,633.991638 760.993225,635.485962 &#10;&#9;C761.000671,759.032837 761.000000,882.579773 761.000000,1006.126648 &#10;&#9;C761.000000,1007.595032 761.000000,1009.063354 761.000000,1010.986755 &#10;&#9;C734.096008,1010.986755 707.512390,1010.986755 680.465210,1010.452393 &#10;&#9;C680.001709,883.687988 680.001709,757.457947 680.001709,631.002930 &#10;&#9;C707.518433,631.002930 734.176147,631.002930 760.833862,631.002930 &#10;z" transform="matrix(1, 0, 0, 1, 1.4210854715202004e-14, 0)"/>
  <path fill="#FFC53D" opacity="1.000000" stroke="none" d="&#10;M477.460144,1012.907349 &#10;&#9;C480.719696,1011.248535 484.436249,1009.649109 488.166016,1008.081177 &#10;&#9;C494.612030,1005.371460 501.107391,1002.773926 507.494598,999.932739 &#10;&#9;C509.727539,998.939453 511.557251,996.972534 513.824097,996.135925 &#10;&#9;C519.327820,994.104431 521.445618,989.283508 523.955750,984.739502 &#10;&#9;C528.530334,976.458313 528.212585,967.036316 529.913513,958.109985 &#10;&#9;C532.799683,942.963684 535.211243,927.725464 537.710999,912.507568 &#10;&#9;C540.212341,897.280396 542.552307,882.026733 545.010498,866.792358 &#10;&#9;C546.762268,855.936584 548.600037,845.094666 550.385986,834.244385 &#10;&#9;C552.598083,820.804871 554.797668,807.363220 557.000427,793.922180 &#10;&#9;C558.778992,783.069397 560.545776,772.214661 562.333252,761.363342 &#10;&#9;C564.546936,747.925354 566.770386,734.488953 569.001038,721.053772 &#10;&#9;C571.580933,705.515564 574.198975,689.983643 576.752747,674.441162 &#10;&#9;C579.201233,659.538757 581.560974,644.621765 584.010498,629.719543 &#10;&#9;C586.538757,614.338318 589.179199,598.975464 591.675171,583.589111 &#10;&#9;C593.857178,570.138611 595.819214,556.652161 598.038208,543.207947 &#10;&#9;C600.496155,528.316223 603.195740,513.464478 605.678101,498.576691 &#10;&#9;C607.864990,485.460968 609.846619,472.311066 612.011353,459.191559 &#10;&#9;C614.522156,443.974884 617.178345,428.782257 619.688171,413.565430 &#10;&#9;C621.852173,400.445648 623.847412,387.298035 626.011841,374.178345 &#10;&#9;C628.522217,358.961548 631.189575,343.770630 633.689392,328.552155 &#10;&#9;C636.190613,313.325439 638.534729,298.073029 641.011230,282.842224 &#10;&#9;C643.513184,267.455719 646.097900,252.082687 648.637512,236.702286 &#10;&#9;C651.097534,221.804169 653.550354,206.904861 655.998962,192.004837 &#10;&#9;C658.527039,176.621201 661.038757,161.234848 663.571472,145.851959 &#10;&#9;C665.703430,132.902939 667.855225,119.957191 669.997681,106.588074 &#10;&#9;C680.138428,106.166161 690.279724,106.166161 701.091003,106.166161 &#10;&#9;C700.302673,112.068695 699.680725,117.815498 698.743408,123.510399 &#10;&#9;C696.922791,134.572128 694.885742,145.598022 693.010559,156.651016 &#10;&#9;C690.699341,170.274796 688.433289,183.906418 686.200806,197.543320 &#10;&#9;C684.098022,210.387619 682.100830,223.249222 679.989807,236.092133 &#10;&#9;C677.774902,249.566162 675.448547,263.021851 673.229065,276.495117 &#10;&#9;C671.113647,289.336426 669.102661,302.194916 666.991882,315.036957 &#10;&#9;C664.777039,328.511932 662.480225,341.973389 660.253174,355.446381 &#10;&#9;C658.475769,366.199249 656.773499,376.964508 654.994446,387.717102 &#10;&#9;C652.738831,401.349182 650.391907,414.966217 648.172546,428.604065 &#10;&#9;C646.055298,441.614075 644.134338,454.656342 641.976196,467.659363 &#10;&#9;C639.421997,483.048645 636.611755,498.395630 634.088867,513.789856 &#10;&#9;C631.929810,526.963501 630.131409,540.196228 627.970032,553.369507 &#10;&#9;C625.497070,568.442322 622.732544,583.467285 620.221558,598.534119 &#10;&#9;C618.375427,609.611328 616.793945,620.732483 614.984619,631.816101 &#10;&#9;C612.837158,644.971252 610.530640,658.100464 608.369873,671.253479 &#10;&#9;C606.523560,682.492371 604.845276,693.758911 602.984497,704.995361 &#10;&#9;C600.807190,718.142822 598.460999,731.262390 596.284973,744.410034 &#10;&#9;C594.451599,755.487244 592.819580,766.597717 590.984375,777.674561 &#10;&#9;C588.779602,790.981262 586.390137,804.257507 584.200500,817.566589 &#10;&#9;C582.377258,828.648499 580.793030,839.769592 578.983215,850.853699 &#10;&#9;C576.835327,864.008240 574.513672,877.134216 572.352661,890.286621 &#10;&#9;C570.505920,901.526123 568.844299,912.796082 566.982971,924.033020 &#10;&#9;C564.805359,937.179810 562.588135,950.321411 560.213501,963.433655 &#10;&#9;C559.004883,970.107727 558.276611,977.056274 555.800537,983.270935 &#10;&#9;C551.728027,993.493042 547.063416,1002.986267 534.928406,1007.416138 &#10;&#9;C524.344055,1011.279907 513.756836,1012.322327 502.923035,1012.909119 &#10;&#9;C494.612793,1013.359192 486.258057,1012.987305 477.460144,1012.907349 &#10;z" transform="matrix(1, 0, 0, 1, 1.4210854715202004e-14, 0)"/>
  <path fill="#FFC53D" opacity="1.000000" stroke="none" d="&#10;M723.169678,531.968872 &#10;&#9;C736.606506,535.758301 749.660400,539.419006 762.593872,543.464539 &#10;&#9;C763.745178,543.824646 765.099304,546.977539 764.696838,548.343506 &#10;&#9;C759.317078,566.601990 753.571655,584.752502 748.112427,602.988220 &#10;&#9;C747.284973,605.752197 746.518494,606.247559 743.665161,605.389832 &#10;&#9;C726.044983,600.092957 708.327881,595.119568 690.680176,589.912598 &#10;&#9;C681.092041,587.083557 671.574951,584.013000 662.031982,581.031799 &#10;&#9;C660.662476,580.603943 659.327637,580.064880 657.966187,579.573486 &#10;&#9;C664.134338,558.827637 670.222778,538.349915 676.357971,517.714966 &#10;&#9;C692.239868,522.585571 707.497131,527.264648 723.169678,531.968872 &#10;z" transform="matrix(1, 0, 0, 1, 1.4210854715202004e-14, 0)"/>
  <path fill="#FFC53D" opacity="1.000000" stroke="none" d="&#10;M760.907227,630.549072 &#10;&#9;C734.176147,631.002930 707.518433,631.002930 680.001709,631.002930 &#10;&#9;C680.001709,757.457947 680.001709,883.687988 680.002319,1010.375977 &#10;&#9;C676.531067,1010.833862 673.059143,1010.833862 669.294189,1010.833862 &#10;&#9;C669.294189,881.030762 669.294189,751.320312 669.294189,621.304932 &#10;&#9;C699.649902,621.304932 730.042297,621.304932 760.980591,621.304932 &#10;&#9;C760.980591,624.219238 760.980591,627.157227 760.907227,630.549072 &#10;z" transform="matrix(1, 0, 0, 1, 1.4210854715202004e-14, 0)"/>
</svg>